<svg width="80" height="80" viewBox="0 0 80 80" fill="none" xmlns="http://www.w3.org/2000/svg">
<path fill-rule="evenodd" clip-rule="evenodd" d="M24 0C10.7452 0 0 10.7452 0 24V56C0 69.2548 10.7452 80 24 80H56C69.2548 80 80 69.2548 80 56V24C80 10.7452 69.2548 0 56 0H24ZM20 17.5C18.6193 17.5 17.5 18.6193 17.5 20C17.5 21.3807 18.6193 22.5 20 22.5H60C61.3807 22.5 62.5 21.3807 62.5 20C62.5 18.6193 61.3807 17.5 60 17.5H20ZM17.5 40C17.5 38.6193 18.6193 37.5 20 37.5H60C61.3807 37.5 62.5 38.6193 62.5 40C62.5 41.3807 61.3807 42.5 60 42.5H20C18.6193 42.5 17.5 41.3807 17.5 40ZM20 57.5C18.6193 57.5 17.5 58.6193 17.5 60C17.5 61.3807 18.6193 62.5 20 62.5H60C61.3807 62.5 62.5 61.3807 62.5 60C62.5 58.6193 61.3807 57.5 60 57.5H20Z" fill="white"/>
</svg>
