<svg viewBox="0 0 278 37" fill="none" xmlns="http://www.w3.org/2000/svg">
<path d="M0.791903 36V1.09091H14.5646C17.2124 1.09091 19.468 1.59659 21.3317 2.60795C23.1953 3.60795 24.6158 5 25.593 6.78409C26.5817 8.55682 27.076 10.6023 27.076 12.9205C27.076 15.2386 26.576 17.2841 25.576 19.0568C24.576 20.8295 23.1271 22.2102 21.2294 23.1989C19.343 24.1875 17.0589 24.6818 14.3771 24.6818H5.59872V18.767H13.1839C14.6044 18.767 15.7749 18.5227 16.6953 18.0341C17.6271 17.5341 18.3203 16.8466 18.7749 15.9716C19.2408 15.0852 19.4737 14.0682 19.4737 12.9205C19.4737 11.7614 19.2408 10.75 18.7749 9.88636C18.3203 9.01136 17.6271 8.33523 16.6953 7.85795C15.7635 7.36932 14.5817 7.125 13.1499 7.125H8.17259V36H0.791903ZM63.9496 18.5455C63.9496 22.3523 63.228 25.5909 61.7848 28.2614C60.353 30.9318 58.3984 32.9716 55.9212 34.3807C53.4553 35.7784 50.6825 36.4773 47.603 36.4773C44.5007 36.4773 41.7166 35.7727 39.2507 34.3636C36.7848 32.9545 34.8359 30.9148 33.4041 28.2443C31.9723 25.5739 31.2564 22.3409 31.2564 18.5455C31.2564 14.7386 31.9723 11.5 33.4041 8.82955C34.8359 6.15909 36.7848 4.125 39.2507 2.72727C41.7166 1.31818 44.5007 0.613635 47.603 0.613635C50.6825 0.613635 53.4553 1.31818 55.9212 2.72727C58.3984 4.125 60.353 6.15909 61.7848 8.82955C63.228 11.5 63.9496 14.7386 63.9496 18.5455ZM56.4666 18.5455C56.4666 16.0795 56.0973 14 55.3587 12.3068C54.6314 10.6136 53.603 9.32955 52.2734 8.45455C50.9439 7.57955 49.3871 7.14205 47.603 7.14205C45.8189 7.14205 44.2621 7.57955 42.9325 8.45455C41.603 9.32955 40.5689 10.6136 39.8303 12.3068C39.103 14 38.7393 16.0795 38.7393 18.5455C38.7393 21.0114 39.103 23.0909 39.8303 24.7841C40.5689 26.4773 41.603 27.7614 42.9325 28.6364C44.2621 29.5114 45.8189 29.9489 47.603 29.9489C49.3871 29.9489 50.9439 29.5114 52.2734 28.6364C53.603 27.7614 54.6314 26.4773 55.3587 24.7841C56.0973 23.0909 56.4666 21.0114 56.4666 18.5455ZM69.4169 36V1.09091H76.7976V29.9148H91.7635V36H69.4169ZM104.032 1.09091V36H96.6513V1.09091H104.032ZM140.906 13.3125H133.44C133.303 12.3466 133.025 11.4886 132.604 10.7386C132.184 9.97727 131.644 9.32954 130.985 8.79545C130.326 8.26136 129.565 7.85227 128.701 7.56818C127.849 7.28409 126.923 7.14205 125.923 7.14205C124.116 7.14205 122.542 7.59091 121.201 8.48864C119.86 9.375 118.82 10.6705 118.082 12.375C117.343 14.0682 116.974 16.125 116.974 18.5455C116.974 21.0341 117.343 23.125 118.082 24.8182C118.832 26.5114 119.877 27.7898 121.218 28.6534C122.559 29.517 124.11 29.9489 125.871 29.9489C126.86 29.9489 127.775 29.8182 128.616 29.5568C129.468 29.2955 130.224 28.9148 130.883 28.4148C131.542 27.9034 132.087 27.2841 132.519 26.5568C132.962 25.8295 133.269 25 133.44 24.0682L140.906 24.1023C140.712 25.7045 140.229 27.25 139.457 28.7386C138.695 30.2159 137.667 31.5398 136.371 32.7102C135.087 33.8693 133.553 34.7898 131.769 35.4716C129.996 36.142 127.991 36.4773 125.752 36.4773C122.638 36.4773 119.854 35.7727 117.4 34.3636C114.957 32.9545 113.025 30.9148 111.604 28.2443C110.195 25.5739 109.491 22.3409 109.491 18.5455C109.491 14.7386 110.207 11.5 111.638 8.82955C113.07 6.15909 115.013 4.125 117.468 2.72727C119.923 1.31818 122.684 0.613635 125.752 0.613635C127.775 0.613635 129.65 0.897726 131.377 1.46591C133.116 2.03409 134.656 2.86364 135.996 3.95454C137.337 5.03409 138.428 6.35795 139.269 7.92614C140.121 9.49432 140.667 11.2898 140.906 13.3125ZM144.153 1.09091H152.42L160.38 16.125H160.721L168.681 1.09091H176.948L164.215 23.6591V36H156.886V23.6591L144.153 1.09091ZM192.089 36V1.09091H205.862C208.509 1.09091 210.765 1.59659 212.629 2.60795C214.492 3.60795 215.913 5 216.89 6.78409C217.879 8.55682 218.373 10.6023 218.373 12.9205C218.373 15.2386 217.873 17.2841 216.873 19.0568C215.873 20.8295 214.424 22.2102 212.526 23.1989C210.64 24.1875 208.356 24.6818 205.674 24.6818H196.896V18.767H204.481C205.901 18.767 207.072 18.5227 207.992 18.0341C208.924 17.5341 209.617 16.8466 210.072 15.9716C210.538 15.0852 210.771 14.0682 210.771 12.9205C210.771 11.7614 210.538 10.75 210.072 9.88636C209.617 9.01136 208.924 8.33523 207.992 7.85795C207.06 7.36932 205.879 7.125 204.447 7.125H199.469V36H192.089ZM225.153 36H217.244L229.295 1.09091H238.806L250.84 36H242.931L234.187 9.06818H233.914L225.153 36ZM224.658 22.2784H243.34V28.0398H224.658V22.2784ZM255.042 36V1.09091H262.423V29.9148H277.388V36H255.042Z" fill="white"/>
</svg>
